<svg viewBox="0 0 100 100" xmlns="http://www.w3.org/2000/svg">
  <!-- Spacer: Ethereal, flowing, adaptive -->
  <g id="spacer-base">
    <path d="M 50,20 Q 30,25 25,40 T 30,60 Q 35,75 50,80 Q 65,75 70,60 T 75,40 Q 70,25 50,20 Z" 
          fill="none" stroke="currentColor" stroke-width="2" stroke-dasharray="5,3"/>
    <circle cx="50" cy="50" r="15" fill="currentColor" opacity="0.1"/>
    <circle cx="40" cy="40" r="5" fill="currentColor" opacity="0.4"/>
    <circle cx="60" cy="40" r="5" fill="currentColor" opacity="0.4"/>
    <path d="M 30,55 Q 50,65 70,55" stroke="currentColor" stroke-width="1" fill="none" opacity="0.5"/>
    <path d="M 50,20 Q 45,10 40,5 T 30,5 Q 25,10 30,20" stroke="currentColor" stroke-width="1" fill="none" opacity="0.3"/>
    <path d="M 50,20 Q 55,10 60,5 T 70,5 Q 75,10 70,20" stroke="currentColor" stroke-width="1" fill="none" opacity="0.3"/>
    <circle cx="50" cy="50" r="20" fill="none" stroke="currentColor" stroke-width="0.5" opacity="0.2"/>
  </g>
</svg>